<?xml version="1.0" encoding="UTF-8" standalone="no"?>
<svg
   xmlns:dc="http://purl.org/dc/elements/1.1/"
   xmlns:cc="http://creativecommons.org/ns#"
   xmlns:rdf="http://www.w3.org/1999/02/22-rdf-syntax-ns#"
   xmlns:svg="http://www.w3.org/2000/svg"
   xmlns="http://www.w3.org/2000/svg"
   xmlns:sodipodi="http://sodipodi.sourceforge.net/DTD/sodipodi-0.dtd"
   xmlns:inkscape="http://www.inkscape.org/namespaces/inkscape"
   id="Bold"
   enable-background="new 0 0 24 24"
   height="64"
   viewBox="0 0 3 3"
   width="64"
   version="1.1"
   sodipodi:docname="github.svg"
   inkscape:version="0.92.5 (2060ec1f9f, 2020-04-08)">
  <metadata
     id="metadata20626">
    <rdf:RDF>
      <cc:Work
         rdf:about="">
        <dc:format>image/svg+xml</dc:format>
        <dc:type
           rdf:resource="http://purl.org/dc/dcmitype/StillImage" />
        <dc:title />
      </cc:Work>
    </rdf:RDF>
  </metadata>
  <defs
     id="defs20624" />
  <sodipodi:namedview
     pagecolor="#ffffff"
     bordercolor="#666666"
     borderopacity="1"
     objecttolerance="10"
     gridtolerance="10"
     guidetolerance="10"
     inkscape:pageopacity="0"
     inkscape:pageshadow="2"
     inkscape:window-width="1280"
     inkscape:window-height="968"
     id="namedview20622"
     showgrid="false"
     inkscape:zoom="1.84375"
     inkscape:cx="-169.12842"
     inkscape:cy="29.662687"
     inkscape:window-x="0"
     inkscape:window-y="32"
     inkscape:window-maximized="1"
     inkscape:current-layer="Bold" />
  <path
     d="M 1.5,8.6597616e-8 C 0.67125,8.6597616e-8 0,0.68868544 0,1.538064 c 0,0.6796855 0.42975,1.2560682 1.025625,1.4592825 0.075,0.014478 0.1025,-0.03313 0.1025,-0.073955 0,-0.036521 -0.00125,-0.1333023 -0.00188,-0.2615178 C 0.709,2.754611 0.621,2.4555285 0.621,2.4555285 0.55275,2.2780095 0.454125,2.2305319 0.454125,2.2305319 c -0.135875,-0.095346 0.0105,-0.09339 0.0105,-0.09339 0.150625,0.010695 0.22975,0.1584759 0.22975,0.1584759 0.13375,0.2351705 0.351125,0.167215 0.436875,0.1279547 0.0135,-0.09952 0.052125,-0.1672149 0.095,-0.2056926 C 0.893125,2.1794022 0.543,2.0471434 0.543,1.4578478 0.543,1.2899808 0.601125,1.1527654 0.697375,1.0451584 0.6805,1.0062894 0.629875,0.84990042 0.7105,0.6380775 c 0,0 0.125625,-0.0412168 0.4125,0.15769329 0.12,-0.0341734 0.2475,-0.0511297 0.375,-0.0519123 0.1275,7.826e-4 0.255,0.0177389 0.375,0.0519123 C 2.158,0.59686073 2.283625,0.6380775 2.283625,0.6380775 c 0.080625,0.21182292 0.03,0.3682119 0.015,0.4070809 0.095625,0.107607 0.15375,0.2448224 0.15375,0.4126894 0,0.5908607 -0.350625,0.7209023 -0.684375,0.7587278 0.0525,0.046173 0.10125,0.1404762 0.10125,0.2846044 0,0.205823 -0.00188,0.3712119 -0.00188,0.4211676 0,0.040304 0.02625,0.088433 0.103125,0.073042 C 2.570625,2.79348 3,2.216706 3,1.538064 3,0.68868544 2.328375,8.6597616e-8 1.5,8.6597616e-8 Z"
     id="path20619"
     inkscape:connector-curvature="0"
     style="stroke-width:1;fill:#666666;fill-opacity:1" />
</svg>
